<svg xmlns="http://www.w3.org/2000/svg" width="44" height="35" viewBox="0 0 44 35" fill="none">
  <path d="M40.9091 17.5C40.9091 27.165 31.9548 35 20.9091 35C9.8634 35 0.909091 27.165 0.909091 17.5C0.909091 7.83502 9.8634 0 20.9091 0C31.9548 0 40.9091 7.83502 40.9091 17.5Z" fill="#385D50"/>
  <path d="M29.0514 12.3807L26.9368 21.8972C26.7787 22.5749 26.3636 23.0267 25.8696 23.0267H17.7075C17.2332 23.0267 16.7787 22.6032 16.6206 21.9819L13.498 10.0369H11.6996C11.2648 10.0369 10.9091 9.52858 10.9091 8.90733C10.9091 8.28608 11.2648 7.77778 11.6996 7.77778H14.0514C14.3874 7.77778 14.6838 8.0884 14.8024 8.54023L18.0237 20.7676H25.5336L27.2134 13.1432H17.9051C17.4704 13.1432 17.1146 12.6349 17.1146 12.0136C17.1146 11.3923 17.4704 10.884 17.9051 10.884H28.3004C28.5573 10.884 28.7945 11.0817 28.9328 11.3641C29.0909 11.6465 29.1304 12.0418 29.0514 12.3807ZM18.1028 24.5234C17.7668 24.5234 17.4308 24.7211 17.1937 25.0599C16.9565 25.3988 16.8182 25.8789 16.8182 26.3589C16.8182 26.839 16.9565 27.319 17.1937 27.6579C17.4308 27.9968 17.7668 28.1944 18.1028 28.1944C18.4387 28.1944 18.7747 27.9968 19.0119 27.6579C19.249 27.319 19.3874 26.839 19.3874 26.3589C19.3874 25.8789 19.249 25.3988 19.0119 25.0599C18.7747 24.7211 18.4387 24.5234 18.1028 24.5234ZM25.1976 24.5234C24.8617 24.5234 24.5257 24.7211 24.2885 25.0599C24.0514 25.3988 23.913 25.8789 23.913 26.3589C23.913 26.839 24.0514 27.319 24.2885 27.6579C24.5257 27.9968 24.8617 28.1944 25.1976 28.1944C25.5336 28.1944 25.8696 27.9968 26.1067 27.6579C26.3439 27.319 26.4822 26.839 26.4822 26.3589C26.4822 25.8789 26.3439 25.3988 26.1067 25.0599C25.8696 24.7211 25.5336 24.5234 25.1976 24.5234Z" fill="#F9BF29"/>
  <path d="M59.7362 16.2878V19.0657H51.6997V16.2878H59.7362Z" fill="#385D50"/>
  <path d="M70.2809 8.13131V27.2222H67.0471V11.4965H66.9426L62.7674 14.3489V11.1795L67.204 8.13131H70.2809Z" fill="#385D50"/>
  <path d="M80.1131 24.1647V11.2634H82.85V24.1647H80.1131ZM75.4498 19.1776V16.2505H87.5133V19.1776H75.4498Z" fill="#385D50"/>
</svg>