<svg xmlns="http://www.w3.org/2000/svg" width="47" height="47" viewBox="0 0 47 47" fill="none">
<path d="M46.7342 12.6385L39.7133 0.858167C39.3947 0.32407 38.8377 0 38.2383 0H8.76174C8.1623 0 7.60528 0.32407 7.28674 0.858167L0.265752 12.6385C0.0922559 12.9302 0 13.2678 0 13.6115V44.5578C0 45.5693 0.779264 46.389 1.74074 46.389H45.2593C46.2207 46.389 47 45.5693 47 44.5578V13.6115C47 13.2672 46.9077 12.9302 46.7342 12.6385ZM43.5185 42.7267H3.48149V14.1383L9.72496 3.6622H37.275L43.5185 14.1382V42.7267Z" fill="#F9BF29"/>
<path d="M30.1728 33.571H16.2469C15.2855 33.571 14.5062 34.3907 14.5062 35.4021V45.1682H17.9877V37.2333H28.4322V45.1682H31.9136V35.4021C31.9136 34.3907 31.1343 33.571 30.1728 33.571Z" fill="#F9BF29"/>
<path d="M25.2407 1.83105H21.7593V14.0387H25.2407V1.83105Z" fill="#F9BF29"/>
<path d="M30.1728 25.636H16.2469C15.2855 25.636 14.5062 26.4557 14.5062 27.4671C14.5062 28.4785 15.2855 29.2983 16.2469 29.2983H30.1729C31.1344 29.2983 31.9136 28.4785 31.9136 27.4671C31.9136 26.4557 31.1343 25.636 30.1728 25.636Z" fill="#F9BF29"/>
<path d="M45.2593 12.2076H1.74074V15.8699H45.2593V12.2076Z" fill="#F9BF29"/>
</svg>