<svg xmlns="http://www.w3.org/2000/svg" width="47" height="51" viewBox="0 0 47 51" fill="none">
<path d="M31.4227 35.321C31.1266 34.7378 30.7186 34.219 30.2223 33.7943C29.726 33.3697 29.151 33.0475 28.5304 32.8464C27.9099 32.6453 27.2558 32.5691 26.6058 32.6223C25.9559 32.6754 25.3227 32.8569 24.7428 33.1562L21.728 34.7055C19.6877 32.239 17.9263 29.5529 16.4762 26.6965C15.0216 23.8427 13.8811 20.8383 13.0749 17.7366L16.0897 16.1873C16.6707 15.89 17.1875 15.4805 17.6105 14.9823C18.0335 14.484 18.3544 13.9069 18.5548 13.2839C18.7551 12.6609 18.831 12.0043 18.778 11.3518C18.7251 10.6993 18.5443 10.0638 18.2462 9.48155L15.229 3.59056C14.9395 3.00785 14.5363 2.48951 14.0433 2.06635C13.5502 1.64319 12.9775 1.32385 12.3591 1.1273C11.738 0.924307 11.0829 0.84662 10.4318 0.898711C9.78057 0.950801 9.14607 1.13164 8.56477 1.43082L5.74218 2.86814C4.36967 3.63764 3.18639 4.70613 2.27932 5.99506C1.37225 7.284 0.764444 8.7606 0.500586 10.3163C-0.89925 16.3962 0.678833 24.7652 4.70761 32.6915C8.73639 40.6177 14.6604 46.8061 20.3718 49.2843C20.804 49.4504 21.2447 49.5932 21.6921 49.7122C22.9437 50.1768 24.275 50.386 25.6082 50.3274C26.9413 50.2688 28.2494 49.9436 29.4557 49.3709L32.2676 47.9127C32.8493 47.6142 33.3665 47.2033 33.7893 46.7034C34.2122 46.2036 34.5324 45.6247 34.7316 45.0002C34.9343 44.3816 35.0111 43.7285 34.9575 43.0796C34.9038 42.4307 34.7207 41.7992 34.4191 41.2227L31.4227 35.321ZM30.7669 44.9697L27.9443 46.4071C26.9413 46.8122 25.8633 46.9962 24.7833 46.9468C23.7033 46.8974 22.6464 46.6156 21.6843 46.1206C16.7182 44.0233 11.3782 38.2855 7.73812 31.1473C4.09807 24.0091 2.56851 16.3527 3.73035 11.0669C3.88869 9.99252 4.27723 8.96543 4.86919 8.0564C5.46116 7.14736 6.24246 6.37802 7.15924 5.8014L10.0655 4.37377C10.2594 4.27513 10.4708 4.21588 10.6875 4.19942C10.9043 4.18297 11.1221 4.20962 11.3286 4.27786C11.5358 4.34369 11.7281 4.44995 11.8943 4.59053C12.0606 4.73111 12.1975 4.90325 12.2974 5.09708L15.2942 11.0512C15.4919 11.4417 15.5276 11.8948 15.3936 12.3117C15.2595 12.7285 14.9666 13.0752 14.5788 13.2759L10.4205 15.4128C10.0955 15.5788 9.83431 15.8481 9.67776 16.1787C9.5212 16.5093 9.47804 16.8827 9.55501 17.2405C10.4027 21.0667 11.7385 24.7672 13.5293 28.2503C15.2969 31.7454 17.5063 34.997 20.1026 37.9246C20.3468 38.1965 20.6737 38.3796 21.0324 38.4455C21.3911 38.5113 21.7614 38.4561 22.0856 38.2885L26.244 36.1516C26.633 35.9532 27.0844 35.9173 27.4996 36.0519C27.9148 36.1864 28.2602 36.4805 28.4601 36.8698L31.4722 42.7766C31.5705 42.9712 31.6295 43.1834 31.6459 43.401C31.6623 43.6186 31.6357 43.8373 31.5678 44.0445C31.4283 44.4443 31.1418 44.7753 30.7669 44.9697ZM44.2589 12.4062C42.7824 9.49717 40.747 6.91034 38.2698 4.79483C35.7927 2.67931 32.9229 1.07697 29.8259 0.0801853C29.409 -0.0549086 28.9558 -0.0182349 28.5659 0.182139C28.1759 0.382512 27.8813 0.730172 27.7467 1.14864C27.6121 1.5671 27.6487 2.02209 27.8483 2.41352C28.0479 2.80494 28.3942 3.10074 28.811 3.23583C31.509 4.11006 34.0077 5.51199 36.1631 7.36071C38.3184 9.20942 40.0878 11.4683 41.369 14.0071C42.6501 16.5458 43.4178 19.3141 43.6277 22.1523C43.8375 24.9904 43.4854 27.8421 42.5917 30.5429C42.4571 30.9614 42.4936 31.4164 42.6932 31.8078C42.8928 32.1993 43.2391 32.495 43.656 32.6301C44.0729 32.7652 44.5261 32.7286 44.916 32.5282C45.3059 32.3278 45.6006 31.9802 45.7352 31.5617C46.7751 28.4315 47.1802 25.1239 46.9266 21.8341C46.6731 18.5442 45.766 15.3386 44.2589 12.4062Z" fill="#F9BF29"/>
<path d="M32.4132 18.533C33.019 19.7121 33.3837 21.0009 33.4859 22.3237C33.5881 23.6464 33.4257 24.9762 33.0083 26.235C32.8737 26.6535 32.9103 27.1085 33.1099 27.4999C33.3095 27.8913 33.6558 28.1871 34.0726 28.3222C34.4895 28.4573 34.9427 28.4206 35.3326 28.2203C35.7226 28.0199 36.0172 27.6722 36.1518 27.2538C36.7099 25.5897 36.9334 23.8309 36.8092 22.0794C36.685 20.3279 36.2156 18.6186 35.4282 17.0507C34.6409 15.4827 33.5512 14.0873 32.2225 12.9454C30.8938 11.8035 29.3524 10.9377 27.6878 10.3984C27.271 10.2633 26.8177 10.3 26.4278 10.5004C26.0379 10.7007 25.7432 11.0484 25.6087 11.4669C25.4741 11.8853 25.5106 12.3403 25.7102 12.7317C25.9098 13.1232 26.2561 13.419 26.673 13.5541C27.9086 13.9648 29.0516 14.616 30.0365 15.4703C31.0214 16.3246 31.8291 17.3653 32.4132 18.533Z" fill="#F9BF29"/>
</svg>