<svg xmlns="http://www.w3.org/2000/svg" width="47" height="48" viewBox="0 0 47 48" fill="none">
<path d="M45.3214 0.991211H1.67857C1.23339 0.991211 0.806435 1.19485 0.491642 1.55734C0.176849 1.91982 0 2.41146 0 2.92409V14.5213C0 15.034 0.176849 15.5256 0.491642 15.8881C0.806435 16.2506 1.23339 16.4542 1.67857 16.4542H3.35714V45.4473C3.35714 45.96 3.53399 46.4516 3.84879 46.8141C4.16358 47.1766 4.59053 47.3802 5.03571 47.3802H41.9643C42.4095 47.3802 42.8364 47.1766 43.1512 46.8141C43.466 46.4516 43.6429 45.96 43.6429 45.4473V16.4542H45.3214C45.7666 16.4542 46.1936 16.2506 46.5084 15.8881C46.8232 15.5256 47 15.034 47 14.5213V2.92409C47 2.41146 46.8232 1.91982 46.5084 1.55734C46.1936 1.19485 45.7666 0.991211 45.3214 0.991211ZM40.2857 43.5145H6.71429V16.4542H15.1071V22.2528C15.1071 22.7655 15.284 23.2571 15.5988 23.6196C15.9136 23.9821 16.3405 24.1857 16.7857 24.1857H30.2143C30.6595 24.1857 31.0864 23.9821 31.4012 23.6196C31.716 23.2571 31.8929 22.7655 31.8929 22.2528V16.4542H40.2857V43.5145ZM18.4643 16.4542H28.5357V20.32H18.4643V16.4542ZM43.6429 12.5885H3.35714V4.85696H43.6429V12.5885Z" fill="#BFB7B7"/>
</svg>