<svg xmlns="http://www.w3.org/2000/svg" width="25" height="30" viewBox="0 0 25 30" fill="none">
    <path
        d="M11.4098 29.2588C11.5299 29.3764 11.65 29.3764 11.65 29.3764C11.5299 29.3764 11.4098 29.3764 11.4098 29.2588Z"
        fill="#F9BF29" />
    <path
        d="M24.0206 14.0206V6.17607C24.0206 6.05899 24.0206 6.05899 24.0206 5.9419C24.0206 5.82482 24.0206 5.70774 23.9005 5.59066C23.9005 5.47358 23.7804 5.47358 23.7804 5.35649C23.7804 5.35649 23.7804 5.35649 23.6603 5.23941C23.6603 5.23941 23.5402 5.12233 23.4201 5.12233C23.4201 5.12233 23.4201 5.12233 23.3 5.12233L12.4907 0.0878114C12.1304 -0.0292705 11.7701 -0.0292705 11.4098 0.0878114L0.600516 5.12233C0.600516 5.12233 0.600516 5.12233 0.480413 5.12233C0.36031 5.12233 0.36031 5.23941 0.240207 5.23941C0.240207 5.23941 0.240206 5.23941 0.120103 5.35649C0.120103 5.35649 0 5.47358 0 5.59066C0.120103 5.70774 0 5.82482 0 5.9419C0 6.05899 0 6.17607 0 6.17607V18.1184C0 18.5867 0.240206 18.938 0.600516 19.1722L11.2897 24.4408C11.4098 24.4408 11.4098 24.5579 11.5299 24.5579C11.65 24.5579 11.7701 24.675 11.8902 24.675C12.0103 24.675 12.1304 24.675 12.2505 24.5579C12.3706 24.5579 12.3706 24.5579 12.4907 24.4408L16.334 22.5675C16.5742 22.9188 16.9346 23.1529 17.2949 23.5042L17.8954 23.9725C18.4959 24.4408 19.0964 24.675 19.817 24.675C20.5377 24.675 21.2583 24.4408 21.7387 23.9725L22.3392 23.5042C24.0206 22.0992 24.9815 20.1088 24.9815 17.8843V16.128C25.1016 15.1914 24.6212 14.4889 24.0206 14.0206ZM12.0103 2.42945L14.5325 3.60027L6.60568 7.58105L9.24795 8.86895L17.2949 4.88817L20.0572 6.17607L12.0103 10.1568L9.24795 8.86895L6.60568 7.58105L3.96341 6.17607L12.0103 2.42945ZM2.40206 8.04938L10.8093 12.1472V21.3967L2.40206 17.2988V8.04938ZM14.7727 16.128V17.8843C14.7727 18.1184 14.7727 18.3526 14.7727 18.5867C14.7727 18.8209 14.7727 18.938 14.8928 19.1722V19.2892C15.0129 19.7576 15.133 20.2259 15.2531 20.5771L13.2114 21.5138V12.2643L21.6186 8.16646V13.3181L20.4176 12.9668C20.0572 12.8497 19.6969 12.8497 19.4567 12.9668L16.5742 13.7864C15.4933 14.0206 14.7727 14.9572 14.7727 16.128ZM22.6995 17.7672C22.6995 19.2892 21.9789 20.6942 20.898 21.6309L20.2974 22.0992C20.0572 22.3334 19.6969 22.3334 19.5768 22.0992L18.9763 21.6309C18.4959 21.2796 18.1356 20.8113 17.8954 20.4601C17.415 19.6405 17.1748 18.8209 17.1748 17.8843V16.128C17.1748 16.128 17.1748 16.0109 17.2949 16.0109L20.0572 15.3085L22.5794 16.0109H22.6995C22.6995 16.0109 22.8196 16.0109 22.8196 16.128V17.7672H22.6995Z"
        fill="#F9BF29" />
</svg>