<svg xmlns="http://www.w3.org/2000/svg" width="47" height="59" viewBox="0 0 47 59" fill="none">
<path d="M23.4919 0C19.6376 0 15.1413 1.22681 11.4636 4.41688C7.78581 7.60695 5.09397 12.8765 5.09397 20.169C5.09397 27.8812 9.51393 35.3918 13.7279 41.16C17.9418 46.9283 22.1501 50.9603 22.1501 50.9603C22.9225 51.7045 24.0774 51.7045 24.8497 50.9603C24.8497 50.9603 29.0581 46.9283 33.272 41.16C37.4859 35.3918 41.9059 27.8812 41.9059 20.169C41.9059 12.8765 39.214 7.60695 35.5363 4.41688C31.8585 1.2268 27.3463 0 23.4919 0ZM23.4919 4.48248C26.5385 4.48248 30.2248 5.51221 33.0004 7.91977C35.776 10.3273 37.8166 14.0271 37.8166 20.169C37.8166 25.891 34.1248 32.9842 30.0892 38.3481C26.6649 42.8994 25.0766 44.497 23.5079 46.2198C22.0343 44.5575 20.1578 42.7311 16.9107 38.3481C12.9121 32.9509 9.1833 25.891 9.1833 20.169C9.1833 14.0271 11.2238 10.3273 13.9994 7.91977C16.775 5.51222 20.4454 4.48248 23.4919 4.48248ZM23.4919 9.00868C17.87 9.00868 13.2726 14.0606 13.2726 20.2171C13.2726 26.3735 17.87 31.4079 23.4919 31.4079C29.1139 31.4079 33.7272 26.3735 33.7272 20.2171C33.7272 14.0606 29.1139 9.00868 23.4919 9.00868ZM23.4919 13.4912C26.9039 13.4912 29.6379 16.4808 29.6379 20.2171C29.6379 23.9534 26.9039 26.9255 23.4919 26.9255C20.08 26.9255 17.3659 23.9534 17.3659 20.2171C17.3659 16.4808 20.08 13.4912 23.4919 13.4912ZM13.2287 45.3233C13.1831 45.3271 13.138 45.3333 13.0929 45.341C8.65657 45.8408 5.30012 46.5747 3.02534 47.6544C1.88796 48.1942 0.86763 48.7176 0.249873 50.182C-0.05901 50.9142 -0.0890711 51.939 0.20196 52.7097C0.492991 53.4804 0.967946 53.9949 1.45591 54.3978C3.40782 56.0093 6.19441 56.6398 9.99797 57.2578C13.8015 57.8758 18.4891 58.2327 23.4919 58.233C28.4948 58.2333 33.1809 57.8754 36.9859 57.2578C40.791 56.6402 43.5908 56.0065 45.544 54.3978C46.0323 53.9955 46.5054 53.4963 46.7979 52.7272C47.0904 51.9581 47.0576 50.9159 46.75 50.182C46.1348 48.7144 45.1111 48.1946 43.9745 47.6544C41.7014 46.5738 38.358 45.8413 33.9229 45.341C31.3162 45.1083 30.6946 49.2827 33.4996 49.8016C37.042 50.2012 40.0201 50.8377 41.7342 51.5027C40.5453 51.9743 38.7931 52.4366 36.3829 52.8278C32.8395 53.4029 28.3184 53.7552 23.4919 53.7549C18.6655 53.7547 14.1467 53.4034 10.605 52.8279C8.18345 52.4344 6.42201 51.975 5.23772 51.5028C6.91163 50.8965 9.94175 50.2026 13.5002 49.8017C16.1706 49.3683 15.8118 45.3439 13.2287 45.3236L13.2287 45.3233Z" fill="#F9BF29"/>
</svg>