<svg xmlns="http://www.w3.org/2000/svg" width="25" height="25" viewBox="0 0 25 25" fill="none">
<path d="M24.9888 9.27302C24.9888 6.5633 22.7467 4.35826 19.991 4.35826H17.649V3.70181C17.649 1.66088 15.9668 0 13.8997 0H11.089C9.02194 0 7.33978 1.66088 7.33978 3.70181V4.35703H4.99775C2.24205 4.35703 0 6.5707 0 9.29153V14.2396C0 14.9207 0.559888 15.4735 1.24975 15.4735C1.93961 15.4735 2.4995 14.9207 2.4995 14.2396V12.4146L11.9826 16.5755C12.1438 16.6458 12.3175 16.6816 12.49 16.6816C12.6625 16.6816 12.8362 16.6458 12.9974 16.5755L22.493 12.4109L22.5005 19.7393C22.5005 21.1003 21.3745 22.2071 19.991 22.2071H4.99775C3.62053 22.2071 2.4995 21.1003 2.4995 19.7393V18.4486C2.4995 17.7674 1.93961 17.2146 1.24975 17.2146C0.559888 17.2146 0 17.7674 0 18.4486V19.7393C0 22.4613 2.24205 24.675 4.99775 24.675H19.991C22.7529 24.675 25 22.4613 25 19.7393L24.9888 9.27302ZM9.84053 3.70181C9.84053 3.02191 10.4004 2.46787 11.0903 2.46787H13.901C14.5896 2.46787 15.1507 3.02067 15.1507 3.70181V4.35703H9.84053V3.70181ZM12.49 14.0977L2.4995 9.71477V9.29276C2.4995 7.93297 3.62053 6.82613 4.99775 6.82613H19.991C21.3682 6.82613 22.4893 7.92433 22.4893 9.27426V9.7123L12.49 14.0977Z" fill="#F9BF29"/>
</svg>