<svg xmlns="http://www.w3.org/2000/svg" width="47" height="43" viewBox="0 0 47 43" fill="none">
    <path
        d="M40.3239 42.441H6.67614C4.90615 42.4384 3.20926 41.5462 1.95769 39.9601C0.706123 38.3741 0.00207867 36.2237 0 33.9807V8.46033C0.00207867 6.21732 0.706123 4.06693 1.95769 2.48088C3.20926 0.894834 4.90615 0.00263419 6.67614 0H40.3239C42.0938 0.00263419 43.7907 0.894834 45.0423 2.48088C46.2939 4.06693 46.9979 6.21732 47 8.46033V33.9807C46.9979 36.2237 46.2939 38.3741 45.0423 39.9601C43.7907 41.5462 42.0938 42.4384 40.3239 42.441ZM6.67614 2.986C5.53044 2.986 4.43167 3.56276 3.62154 4.58939C2.81141 5.61603 2.35628 7.00845 2.35628 8.46033V33.9807C2.35628 35.4326 2.81141 36.825 3.62154 37.8516C4.43167 38.8782 5.53044 39.455 6.67614 39.455H40.3239C41.4696 39.455 42.5683 38.8782 43.3785 37.8516C44.1886 36.825 44.6437 35.4326 44.6437 33.9807V8.46033C44.6437 7.00845 44.1886 5.61603 43.3785 4.58939C42.5683 3.56276 41.4696 2.986 40.3239 2.986H6.67614Z"
        fill="#F9BF29" />
    <path
        d="M23.5 27.2721C22.0466 27.275 20.6321 26.6775 19.4708 25.5701L1.13102 7.99252C1.00144 7.87728 0.891516 7.73012 0.807817 7.55984C0.724117 7.38956 0.668356 7.19965 0.643864 7.00145C0.619372 6.80325 0.626651 6.60083 0.665267 6.40627C0.703883 6.21172 0.773044 6.02902 0.868618 5.86909C0.964193 5.70917 1.08422 5.57529 1.22153 5.47546C1.35885 5.37562 1.51063 5.31188 1.66781 5.28804C1.825 5.2642 1.98436 5.28075 2.13639 5.3367C2.28841 5.39265 2.42998 5.48685 2.55264 5.61368L20.8924 23.2112C21.6455 23.9236 22.5602 24.3085 23.5 24.3085C24.4398 24.3085 25.3545 23.9236 26.1076 23.2112L44.4474 5.61368C44.57 5.48685 44.7116 5.39265 44.8636 5.3367C45.0156 5.28075 45.175 5.2642 45.3322 5.28804C45.4894 5.31188 45.6412 5.37562 45.7785 5.47546C45.9158 5.57529 46.0358 5.70917 46.1314 5.86909C46.227 6.02902 46.2961 6.21172 46.3347 6.40627C46.3734 6.60083 46.3806 6.80325 46.3561 7.00145C46.3316 7.19965 46.2759 7.38956 46.1922 7.55984C46.1085 7.73012 45.9986 7.87728 45.869 7.99252L27.5292 25.5701C26.3679 26.6775 24.9534 27.275 23.5 27.2721Z"
        fill="#F9BF29" />
    <path
        d="M1.64154 38.2805C1.4026 38.281 1.16919 38.1893 0.972294 38.0177C0.7754 37.8462 0.624327 37.6028 0.53912 37.3199C0.453914 37.037 0.438603 36.728 0.495219 36.4338C0.551835 36.1396 0.677701 35.8742 0.856116 35.6727L15.308 19.3393C15.5413 19.0753 15.8478 18.9396 16.1601 18.962C16.4723 18.9844 16.7648 19.1631 16.9731 19.4588C17.1814 19.7544 17.2885 20.1428 17.2708 20.5386C17.2532 20.9343 17.1122 21.3049 16.8788 21.5689L2.42697 37.9023C2.21235 38.1497 1.93169 38.2849 1.64154 38.2805ZM45.3585 38.2805C45.0683 38.2849 44.7877 38.1497 44.573 37.9023L30.1212 21.5689C30.0056 21.4382 29.9116 21.2799 29.8443 21.1031C29.7771 20.9263 29.7379 20.7345 29.7292 20.5386C29.7204 20.3426 29.7422 20.1464 29.7933 19.9611C29.8444 19.7759 29.9238 19.6052 30.0269 19.4588C30.1301 19.3124 30.2549 19.1932 30.3944 19.1079C30.5339 19.0227 30.6853 18.9731 30.8399 18.962C30.9946 18.9509 31.1494 18.9785 31.2956 19.0433C31.4418 19.108 31.5765 19.2086 31.692 19.3393L46.136 35.6727C46.3144 35.8742 46.4403 36.1396 46.4969 36.4338C46.5535 36.728 46.5382 37.037 46.453 37.3199C46.3678 37.6028 46.2168 37.8462 46.0199 38.0177C45.823 38.1893 45.5896 38.281 45.3506 38.2805H45.3585Z"
        fill="#F9BF29" />
</svg>