<svg xmlns="http://www.w3.org/2000/svg" width="25" height="25" viewBox="0 0 25 25" fill="none">
<path d="M24.3119 5.7316L13.1881 0.159741C12.7616 -0.0532471 12.2384 -0.0532471 11.8119 0.159741L0.688123 5.7316C0.262524 5.94459 0 6.3387 0 6.76544V17.9092C0 18.3359 0.262524 18.73 0.688123 18.943L11.8119 24.5149C12.0251 24.6214 12.2626 24.675 12.5 24.675C12.7374 24.675 12.9749 24.6214 13.1881 24.5149L24.3119 18.943C24.7375 18.73 25 18.3359 25 17.9092V6.76544C25 6.33869 24.7375 5.94459 24.3119 5.7316ZM22.2475 17.2197L12.5 22.102L2.75249 17.2197V7.45493L12.5 2.57256L22.2475 7.45493V17.2197Z" fill="#F9BF29"/>
<path d="M11.1238 6.36746V13.958C11.1238 14.6172 11.7402 15.152 12.5 15.152C13.2598 15.152 13.8762 14.6172 13.8762 13.958V6.36746C13.8762 5.70828 13.2598 5.17348 12.5 5.17348C11.7402 5.17348 11.1238 5.70828 11.1238 6.36746ZM12.5 16.2465C11.7402 16.2465 11.1238 16.7813 11.1238 17.4404V18.3072C11.1238 18.9663 11.7402 19.5011 12.5 19.5011C13.2598 19.5011 13.8762 18.9663 13.8762 18.3072V17.4404C13.8762 16.7813 13.2598 16.2465 12.5 16.2465Z" fill="#F9BF29"/>
</svg>