<svg xmlns="http://www.w3.org/2000/svg" width="25" height="25" viewBox="0 0 25 25" fill="none">
  <path d="M12.5 5.48364C13.3333 5.48364 13.8889 6.03198 13.8889 6.85448V13.7086C13.8889 14.5311 13.3333 15.0795 12.5 15.0795C11.6667 15.0795 11.1111 14.5311 11.1111 13.7086V6.85448C11.1111 6.03198 11.6667 5.48364 12.5 5.48364Z" fill="#F9BF29"/>
  <path d="M12.5 19.1919C11.7329 19.1919 11.1111 18.5781 11.1111 17.821C11.1111 17.0639 11.7329 16.4502 12.5 16.4502C13.2671 16.4502 13.8889 17.0639 13.8889 17.821C13.8889 18.5781 13.2671 19.1919 12.5 19.1919Z" fill="#F9BF29"/>
  <path d="M12.5 0C19.4444 0 25 5.48333 25 12.3375C25 14.805 24.1667 17.2725 22.7778 19.3288L24.7222 22.6187C25 23.03 25 23.5783 24.7222 23.9896C24.4444 24.4008 24.1667 24.675 23.6111 24.675H12.5C5.55556 24.675 0 19.1917 0 12.3375C0 5.48333 5.55556 0 12.5 0ZM12.5 21.9333H21.1111L19.8611 19.8771C19.5833 19.3287 19.5833 18.7804 20 18.3692C21.3889 16.7242 22.2222 14.5308 22.2222 12.3375C22.2222 6.99125 17.9167 2.74167 12.5 2.74167C7.08333 2.74167 2.77778 6.99125 2.77778 12.3375C2.77778 17.6838 7.08333 21.9333 12.5 21.9333Z" fill="#F9BF29"/>
</svg>