<svg xmlns="http://www.w3.org/2000/svg" width="22" height="21" viewBox="0 0 22 21" fill="none">
<path d="M11 21C10.2086 20.9992 9.44992 20.6551 8.89069 20.0431L2.31402 12.8664C1.26063 11.7431 0.52511 10.3124 0.195212 8.74492C-0.134687 7.17742 -0.0450434 5.53929 0.453449 4.02593C0.759772 2.99081 1.32274 2.06879 2.07978 1.36236C2.83682 0.655935 3.75827 0.192775 4.74172 0.0243621C5.96303 -0.0751224 7.18655 0.182703 8.28647 0.771327C9.38638 1.35995 10.323 2.25813 11 3.3735C11.667 2.25244 12.5989 1.34931 13.697 0.759736C14.7952 0.170159 16.0189 -0.0839316 17.2384 0.0243621C18.2254 0.18904 19.1511 0.650511 19.9119 1.35718C20.6727 2.06386 21.2387 2.98788 21.5466 4.02593C22.045 5.53929 22.1347 7.17742 21.8048 8.74492C21.4749 10.3124 20.7394 11.7431 19.686 12.8664L13.1093 20.0431C12.5501 20.6551 11.7914 20.9992 11 21ZM5.46804 2.14476C5.31565 2.1336 5.16274 2.1336 5.01035 2.14476C4.37902 2.26761 3.79179 2.58128 3.31523 3.05022C2.83866 3.51916 2.49183 4.12462 2.31402 4.79798C1.94848 5.91852 1.88738 7.13071 2.13807 8.28836C2.38875 9.446 2.94053 10.4997 3.72686 11.3223L10.2936 18.5099C10.3861 18.6118 10.4961 18.6927 10.6174 18.7479C10.7386 18.8031 10.8687 18.8315 11 18.8315C11.1313 18.8315 11.2614 18.8031 11.3826 18.7479C11.5039 18.6927 11.6139 18.6118 11.7064 18.5099L18.2731 11.3223C19.0595 10.4997 19.6112 9.446 19.8619 8.28836C20.1126 7.13071 20.0515 5.91852 19.686 4.79798C19.5019 4.12778 19.15 3.5272 18.67 3.06411C18.19 2.60102 17.6011 2.29387 16.9697 2.17738C16.099 2.12786 15.2319 2.33239 14.4573 2.76998C13.6827 3.20757 13.0286 3.86246 12.5621 4.66749C12.3764 4.93348 12.137 5.14906 11.8626 5.29744C11.5883 5.44583 11.2862 5.52302 10.9801 5.52302C10.674 5.52302 10.3719 5.44583 10.0976 5.29744C9.82318 5.14906 9.58383 4.93348 9.39812 4.66749C8.96555 3.9441 8.38567 3.33993 7.70386 2.90227C7.02205 2.46461 6.25681 2.20534 5.46804 2.14476Z" fill="white"/>
</svg>
