<svg xmlns="http://www.w3.org/2000/svg" width="48" height="45" viewBox="0 0 48 45" fill="none">
  <path d="M45.36 0H2.64C1.93983 0 1.26833 0.256355 0.773238 0.712668C0.278142 1.16898 0 1.78788 0 2.4332V41.8068C0 42.1263 0.0682858 42.4427 0.200958 42.7379C0.333631 43.0332 0.528092 43.3014 0.773238 43.5273C1.01839 43.7533 1.30942 43.9325 1.62972 44.0548C1.95002 44.1771 2.29331 44.24 2.64 44.24H25.632V27.097H19.392V20.461H25.632V15.484C25.5027 14.3155 25.6524 13.1351 26.0705 12.0256C26.4886 10.9161 27.165 9.90433 28.0523 9.06126C28.9396 8.21819 30.0163 7.56425 31.2068 7.14529C32.3973 6.72633 33.6729 6.5525 34.944 6.636C36.812 6.62541 38.6791 6.71403 40.536 6.90144V12.8738H36.72C33.696 12.8738 33.12 14.201 33.12 16.1255V20.3946H40.32L39.384 27.0306H33.12V44.24H45.36C45.7067 44.24 46.05 44.1771 46.3703 44.0548C46.6906 43.9325 46.9816 43.7533 47.2268 43.5273C47.4719 43.3014 47.6664 43.0332 47.799 42.7379C47.9317 42.4427 48 42.1263 48 41.8068V2.4332C48 2.11367 47.9317 1.79726 47.799 1.50205C47.6664 1.20685 47.4719 0.938612 47.2268 0.712668C46.9816 0.486725 46.6906 0.307496 46.3703 0.185217C46.05 0.0629368 45.7067 0 45.36 0Z" fill="#383838"/>
</svg>