<svg xmlns="http://www.w3.org/2000/svg" width="56" height="53" viewBox="0 0 56 53" fill="none">
  <g filter="url(#filter0_d_59_1039)">
    <path d="M35.9738 21.5605C31.5728 18.4618 27.3588 15.613 23.0512 12.6387V30.4318C27.5841 27.1853 32.3618 24.2121 35.9925 21.5605H35.9738Z" fill="white"/>
    <path d="M35.9738 21.5605C31.5728 18.4618 23.0512 12.6387 23.0512 12.6387L34.4127 22.6997C34.4136 22.6997 32.3431 24.2121 35.9738 21.5605Z" fill="#E8E0E0"/>
    <path d="M23.8794 44.36C14.738 44.1382 11.6158 43.9387 9.69669 43.4178C8.39828 43.0717 7.26996 42.3032 6.44265 41.1885C5.80324 40.3449 5.29475 39.0578 4.90024 37.2721C4.56183 35.7843 4.43003 34.5465 4.24213 31.5229C3.95448 24.699 3.88591 19.12 4.24213 12.8863C4.53601 9.44386 4.67849 5.35727 6.63056 2.97313C7.55226 1.85733 8.62448 1.13927 9.82849 0.842427C11.7093 0.371935 19.7224 0 28.0178 0C36.2944 0 44.3253 0.371935 46.2079 0.842427C47.7121 1.21436 49.1227 2.32899 49.9509 3.76628C51.7319 7.45747 51.7631 12.0474 51.9439 15.6377C52.0187 17.3483 52.0187 27.0621 51.9439 28.7727C51.6625 34.4468 51.4363 36.4543 50.7969 38.5357C50.4015 39.8498 50.064 40.5432 49.4798 41.3117C48.5636 42.4944 47.3955 43.281 46.1313 43.5668C38.2207 44.3506 31.5033 44.5207 23.8794 44.36ZM35.9934 21.5605C31.5924 18.4618 27.3784 15.5884 23.0708 12.6141V30.4083C27.6037 27.1618 32.3823 24.1875 36.0121 21.5358L35.9934 21.5605Z" fill="#383838"/>
  </g>
  <defs>
    <filter id="filter0_d_59_1039" x="0" y="0" width="56" height="52.415" filterUnits="userSpaceOnUse" color-interpolation-filters="sRGB">
      <feFlood flood-opacity="0" result="BackgroundImageFix"/>
      <feColorMatrix in="SourceAlpha" type="matrix" values="0 0 0 0 0 0 0 0 0 0 0 0 0 0 0 0 0 0 127 0" result="hardAlpha"/>
      <feOffset dy="4"/>
      <feGaussianBlur stdDeviation="2"/>
      <feComposite in2="hardAlpha" operator="out"/>
      <feColorMatrix type="matrix" values="0 0 0 0 0 0 0 0 0 0 0 0 0 0 0 0 0 0 0.25 0"/>
      <feBlend mode="normal" in2="BackgroundImageFix" result="effect1_dropShadow_59_1039"/>
      <feBlend mode="normal" in="SourceGraphic" in2="effect1_dropShadow_59_1039" result="shape"/>
    </filter>
  </defs>
</svg>