<svg xmlns="http://www.w3.org/2000/svg" width="48" height="45" viewBox="0 0 48 45" fill="none">
<path d="M36.816 7.65352C36.2464 7.65352 35.6896 7.8092 35.216 8.10087C34.7423 8.39254 34.3732 8.8071 34.1552 9.29213C33.9372 9.77715 33.8802 10.3109 33.9913 10.8258C34.1025 11.3407 34.3768 11.8136 34.7795 12.1849C35.1823 12.5561 35.6955 12.8089 36.2541 12.9113C36.8128 13.0137 37.3919 12.9612 37.9181 12.7603C38.4444 12.5594 38.8942 12.2191 39.2106 11.7826C39.5271 11.3461 39.696 10.8329 39.696 10.3079C39.696 9.60393 39.3926 8.92877 38.8525 8.43098C38.3124 7.93318 37.5798 7.65352 36.816 7.65352ZM47.856 13.0066C47.8093 11.1713 47.4364 9.35544 46.752 7.6314C46.1418 6.15629 45.192 4.82056 43.968 3.71616C42.7796 2.58235 41.3269 1.71248 39.72 1.17236C37.8544 0.522388 35.882 0.170789 33.888 0.13272C31.344 -1.23605e-07 30.528 0 24 0C17.472 0 16.656 -1.23605e-07 14.112 0.13272C12.118 0.170789 10.1456 0.522388 8.28 1.17236C6.67602 1.71795 5.22464 2.58707 4.032 3.71616C2.80182 4.81149 1.85802 6.15033 1.272 7.6314C0.566786 9.35088 0.185304 11.1687 0.144 13.0066C-1.3411e-07 15.3513 0 16.1034 0 22.12C0 28.1366 -1.3411e-07 28.8887 0.144 31.2334C0.185304 33.0713 0.566786 34.8891 1.272 36.6086C1.85802 38.0897 2.80182 39.4285 4.032 40.5238C5.22464 41.6529 6.67602 42.5221 8.28 43.0676C10.1456 43.7176 12.118 44.0692 14.112 44.1073C16.656 44.24 17.472 44.24 24 44.24C30.528 44.24 31.344 44.24 33.888 44.1073C35.882 44.0692 37.8544 43.7176 39.72 43.0676C41.3269 42.5275 42.7796 41.6577 43.968 40.5238C45.1974 39.4235 46.148 38.0866 46.752 36.6086C47.4364 34.8846 47.8093 33.0687 47.856 31.2334C47.856 28.8887 48 28.1366 48 22.12C48 16.1034 48 15.3513 47.856 13.0066ZM43.536 30.968C43.5185 32.3721 43.2426 33.7633 42.72 35.0823C42.3368 36.045 41.7213 36.9148 40.92 37.6261C40.1416 38.3572 39.1997 38.9233 38.16 39.2851C36.7289 39.7668 35.2195 40.0211 33.696 40.0372C31.296 40.1478 30.408 40.1699 24.096 40.1699C17.784 40.1699 16.896 40.1699 14.496 40.0372C12.9141 40.0645 11.339 39.84 9.84 39.3736C8.84588 38.9933 7.94725 38.4286 7.2 37.7146C6.40341 37.004 5.79562 36.1334 5.424 35.1708C4.83806 33.8329 4.51306 32.4101 4.464 30.968C4.464 28.756 4.32 27.9376 4.32 22.12C4.32 16.3024 4.32 15.484 4.464 13.272C4.47476 11.8365 4.75908 10.414 5.304 9.0692C5.72651 8.13554 6.37504 7.30327 7.2 6.636C7.92915 5.87544 8.83029 5.27141 9.84 4.8664C11.3029 4.37986 12.8448 4.12556 14.4 4.11432C16.8 4.11432 17.688 3.9816 24 3.9816C30.312 3.9816 31.2 3.9816 33.6 4.11432C35.1235 4.13042 36.6329 4.38473 38.064 4.8664C39.1546 5.23946 40.1335 5.84598 40.92 6.636C41.7065 7.31548 42.321 8.1462 42.72 9.0692C43.2534 10.4162 43.5295 11.8381 43.536 13.272C43.656 15.484 43.68 16.3024 43.68 22.12C43.68 27.9376 43.656 28.756 43.536 30.968ZM24 10.7724C21.5659 10.7768 19.1879 11.4461 17.1664 12.6956C15.1448 13.9451 13.5705 15.7189 12.6423 17.7928C11.7141 19.8667 11.4737 22.1476 11.9515 24.3473C12.4293 26.5471 13.6038 28.567 15.3266 30.1517C17.0494 31.7365 19.2432 32.8151 21.6309 33.2511C24.0185 33.6872 26.4928 33.4612 28.7411 32.6016C30.9895 31.7421 32.9109 30.2877 34.2627 28.4221C35.6145 26.5564 36.336 24.3634 36.336 22.12C36.3392 20.6271 36.0221 19.1484 35.403 17.7689C34.7839 16.3894 33.8749 15.1363 32.7285 14.0817C31.582 13.0271 30.2207 12.1918 28.7227 11.6239C27.2248 11.056 25.6197 10.7666 24 10.7724ZM24 29.486C22.4193 29.486 20.8742 29.054 19.5599 28.2446C18.2456 27.4352 17.2213 26.2848 16.6164 24.9388C16.0115 23.5929 15.8532 22.1118 16.1616 20.683C16.4699 19.2541 17.2311 17.9416 18.3488 16.9115C19.4665 15.8813 20.8905 15.1798 22.4408 14.8956C23.9911 14.6114 25.5981 14.7572 27.0584 15.3147C28.5188 15.8723 29.7669 16.8164 30.6451 18.0277C31.5233 19.239 31.992 20.6632 31.992 22.12C31.992 23.0873 31.7853 24.0452 31.3836 24.9388C30.982 25.8325 30.3933 26.6445 29.6512 27.3285C28.9091 28.0125 28.028 28.5551 27.0584 28.9253C26.0888 29.2954 25.0495 29.486 24 29.486Z" fill="#383838"/>
</svg>