<svg xmlns="http://www.w3.org/2000/svg" width="48" height="45" viewBox="0 0 48 45" fill="none">
<path d="M0 22.1222C0.1248 15.8439 2.5296 10.601 7.2192 6.39774C11.9088 2.19452 17.5008 0.0575177 24 0C30.9984 0.115035 36.7344 2.31841 41.2032 6.61012C45.672 10.9018 47.9376 16.074 48 22.1222C47.8752 28.343 45.4704 33.5727 40.7808 37.8069C36.0912 42.0366 30.4992 44.1825 24 44.24C21.7488 44.24 19.5024 43.9214 17.2512 43.2887C17.688 42.6561 18.1248 41.9349 18.5616 41.1296C19.0608 40.1518 19.6848 38.3068 20.4384 35.5991C20.6256 34.8513 20.9088 33.8426 21.2832 32.5727C21.72 33.263 22.4688 33.8957 23.5344 34.4753C26.3472 35.6831 29.3136 35.5681 32.4384 34.1301C35.688 32.4002 37.9392 29.7234 39.1872 26.0954C40.3104 22.2948 40.1712 18.7641 38.7648 15.5121C37.3584 12.2557 34.8432 9.91075 31.2192 8.46838C26.6592 7.26051 22.2192 7.38882 17.9088 8.85773C13.5984 10.3266 10.5984 12.8486 8.9088 16.4191C8.472 17.742 8.208 19.0561 8.112 20.3524C8.016 21.6488 8.064 22.9142 8.2512 24.153C8.4384 25.3919 8.9088 26.5024 9.6576 27.4802C10.4064 28.458 11.4096 29.2102 12.6576 29.7278C12.9696 29.8429 13.2192 29.8429 13.4064 29.7278C13.656 29.6128 13.9056 29.1527 14.1552 28.3474C14.4048 27.5422 14.5008 26.9935 14.4384 26.7059C14.376 26.5909 14.2512 26.3874 14.064 26.0998C12.7536 24.1398 12.312 22.0824 12.7536 19.9233C13.1904 17.7641 14.16 15.9324 15.6576 14.437C17.9712 12.5344 20.6736 11.4991 23.7648 11.3266C26.856 11.154 29.5008 11.9327 31.6848 13.6583C32.8704 14.9236 33.6384 16.4501 33.9792 18.2376C34.32 20.025 34.3248 21.7373 33.9792 23.3788C33.6336 25.0202 33.024 26.5599 32.1504 28.0023C30.5856 30.2499 28.7424 31.4003 26.6208 31.4578C25.3728 31.4003 24.3552 30.9534 23.5728 30.1172C22.7904 29.281 22.5552 28.3164 22.872 27.2236C22.9968 26.5909 23.3712 25.3521 23.9952 23.5071C24.6192 21.6621 24.9648 20.2816 25.0272 19.3614C24.84 17.1713 23.7456 16.0475 21.744 15.9899C20.1792 16.1625 19.0272 16.8129 18.2736 17.9323C17.52 19.0516 17.1168 20.3392 17.0544 21.7771C17.2416 23.4495 17.5248 24.5999 17.8992 25.2326C17.2128 27.8253 16.68 29.9004 16.3056 31.4534C16.1808 31.856 15.8352 33.0948 15.2736 35.1699C14.712 37.245 14.4 38.8289 14.3376 39.9217V42.3419C9.9024 40.4394 6.3984 37.6918 3.84 34.0903C1.2816 30.4888 0 26.498 0 22.1222Z" fill="#383838"/>
</svg>