<svg width="30" height="45" viewBox="0 0 30 45" fill="none" xmlns="http://www.w3.org/2000/svg">
<path d="M8.02547 44.7166L21.7954 44.6776L21.7767 38.2227L8.00671 38.2616L8.02547 44.7166Z" fill="#F9BF29"/>
<path d="M7.99251 33.3953L21.7625 33.3563L21.7437 26.9014L7.97376 26.9403L7.99251 33.3953Z" fill="#F9BF29"/>
<path d="M14.2963 0.253141L0.190387 15.4436C0.11388 15.537 0.0654634 15.6497 0.050649 15.7689C0.0358346 15.8881 0.0552157 16.009 0.106587 16.1178C0.157959 16.2267 0.239258 16.3191 0.341235 16.3847C0.443211 16.4502 0.561769 16.4861 0.683422 16.4884L7.95339 16.4678L7.96968 22.074L21.7296 22.035L21.7133 16.4289L28.9833 16.4083C29.1105 16.4102 29.2355 16.3752 29.3428 16.3076C29.4501 16.2401 29.5349 16.1429 29.5867 16.0282C29.6386 15.9135 29.6552 15.7863 29.6344 15.6624C29.6137 15.5385 29.5566 15.4233 29.4702 15.3311L15.2763 0.250367C15.2134 0.184193 15.1374 0.131497 15.053 0.0955596C14.9686 0.059622 14.8776 0.0412095 14.7857 0.0414697C14.6938 0.0417298 14.6029 0.060657 14.5187 0.0970719C14.4345 0.133487 14.3588 0.186611 14.2963 0.253141V0.253141Z" fill="#F9BF29"/>
</svg>
